HIERARCHY
ROOT root
{
	OFFSET 0.000000 0.000000 0.000000
	CHANNELS 6 Xposition Yposition Zposition Zrotation Yrotation Xrotation
	JOINT lhip
	{
		OFFSET 0.058581 -0.082280 -0.017664
		CHANNELS 3 Zrotation Yrotation Xrotation
		JOINT lknee
		{
			OFFSET 0.043451 -0.386469 0.008037
			CHANNELS 3 Zrotation Yrotation Xrotation
			JOINT lankle
			{
				OFFSET -0.014790 -0.426874 -0.037428
				CHANNELS 3 Zrotation Yrotation Xrotation
				JOINT ltoe
				{
					OFFSET 0.041054 -0.060286 0.122042
					CHANNELS 3 Zrotation Yrotation Xrotation
					End Site
					{
						OFFSET 0.000000 0.000000 0.000000
					}
				}
			}
		}
	}
	JOINT rhip
	{
		OFFSET -0.060310 -0.090513 -0.013543
		CHANNELS 3 Zrotation Yrotation Xrotation
		JOINT rknee
		{
			OFFSET -0.043257 -0.383688 -0.004843
			CHANNELS 3 Zrotation Yrotation Xrotation
			JOINT rankle
			{
				OFFSET 0.019056 -0.420046 -0.034562
				CHANNELS 3 Zrotation Yrotation Xrotation
				JOINT rtoe
				{
					OFFSET -0.034840 -0.062106 0.130323
					CHANNELS 3 Zrotation Yrotation Xrotation
					End Site
					{
						OFFSET 0.000000 0.000000 0.000000
					}
				}
			}
		}
	}
	JOINT lowerback
	{
		OFFSET 0.004439 0.124404 -0.038385
		CHANNELS 3 Zrotation Yrotation Xrotation
		JOINT upperback
		{
			OFFSET 0.004488 0.137956 0.026820
			CHANNELS 3 Zrotation Yrotation Xrotation
			JOINT chest
			{
				OFFSET -0.002265 0.056032 0.002855
				CHANNELS 3 Zrotation Yrotation Xrotation
				JOINT lowerneck
				{
					OFFSET -0.013390 0.211636 -0.033468
					CHANNELS 3 Zrotation Yrotation Xrotation
					JOINT upperneck
					{
						OFFSET 0.010113 0.088937 0.050410
						CHANNELS 3 Zrotation Yrotation Xrotation
						End Site
						{
							OFFSET 0.000000 0.000000 0.000000
						}
					}
				}
				JOINT lclavicle
				{
					OFFSET 0.071702 0.114000 -0.018898
					CHANNELS 3 Zrotation Yrotation Xrotation
					JOINT lshoulder
					{
						OFFSET 0.122921 0.045205 -0.019046
						CHANNELS 3 Zrotation Yrotation Xrotation
						JOINT lelbow
						{
							OFFSET 0.255332 -0.015649 -0.022946
							CHANNELS 3 Zrotation Yrotation Xrotation
							JOINT lwrist
							{
								OFFSET 0.265709 0.012698 -0.007375
								CHANNELS 3 Zrotation Yrotation Xrotation
								End Site
								{
									OFFSET 0.000000 0.000000 0.000000
								}
							}
						}
					}
				}
				JOINT rclavicle
				{
					OFFSET -0.082954 0.112472 -0.023707
					CHANNELS 3 Zrotation Yrotation Xrotation
					JOINT rshoulder
					{
						OFFSET -0.113228 0.046853 -0.008472
						CHANNELS 3 Zrotation Yrotation Xrotation
						JOINT relbow
						{
							OFFSET -0.260127 -0.014369 -0.031269
							CHANNELS 3 Zrotation Yrotation Xrotation
							JOINT rwrist
							{
								OFFSET -0.269108 0.006794 -0.006027
								CHANNELS 3 Zrotation Yrotation Xrotation
								End Site
								{
									OFFSET 0.000000 0.000000 0.000000
								}
							}
						}
					}
				}
			}
		}
	}
}
MOTION
Frames: 13
Frame Time: 0.033333
0.726899 0.723744 0.874038 -94.494675 3.471964 85.968634 25.514865 6.769345 -33.019489 -11.175660 -0.727507 43.050651 -9.306351 3.089189 -13.940636 0.000000 -0.000000 0.000000 -31.790199 3.391684 15.672139 4.054775 26.115645 44.206030 16.632245 8.484021 -22.263949 0.000000 -0.000000 0.000000 3.513150 5.315265 18.149771 7.048158 -8.556821 9.997093 0.522978 -1.303492 3.370638 1.763500 12.699105 3.992128 -0.547230 2.224270 7.812217 -19.405676 1.715747 0.600934 -31.991503 4.778627 -4.122067 -1.632221 -33.252614 3.259569 2.193115 -6.391812 -9.557555 26.233574 -2.818351 -3.424549 37.767675 -0.018715 5.148718 -25.044355 56.831236 -22.135795 0.969058 2.624725 -0.399745 
0.714279 0.700090 0.867738 -94.139995 5.104568 88.165419 25.637448 7.740271 -37.307982 -11.722838 0.256536 47.794707 -8.188801 1.994709 -16.369655 0.000000 -0.000000 0.000000 -31.312407 2.509808 14.074604 3.262844 28.362869 42.872202 19.198928 10.193992 -15.457534 0.000000 -0.000000 0.000000 3.275313 6.548535 19.673351 7.311108 -8.631801 9.508075 0.810917 -0.984976 3.211953 0.451934 12.045233 4.282620 1.184412 1.507319 6.019754 -17.635531 -1.135075 0.820092 -31.370158 1.697091 -4.320127 -1.398314 -34.993673 2.656590 4.759675 -6.745794 -10.752757 25.650619 -2.888277 -2.757883 40.238685 -2.032480 5.331915 -25.337152 58.001105 -20.206072 1.356046 2.827574 -0.558800 
0.701807 0.677468 0.865053 -94.039197 6.463757 90.274308 25.713488 8.273452 -40.037080 -11.598019 1.940723 50.263191 -6.847388 1.363537 -19.159421 0.000000 -0.000000 0.000000 -31.666850 1.513297 12.365016 2.311051 29.456689 40.496319 22.420551 11.864275 -8.185538 0.000000 -0.000000 0.000000 2.492058 7.713729 20.631150 7.452775 -8.698332 9.551803 1.428172 -0.734348 3.319899 -0.194286 12.014962 3.395771 2.256486 1.263988 5.164186 -16.532593 -2.572679 -0.195947 -30.959103 -1.122429 -4.304685 -1.262658 -37.276904 2.000485 5.879416 -6.581589 -10.779397 25.307903 -2.650941 -2.457934 41.864275 -2.903175 6.355630 -25.579671 58.451289 -20.206620 1.642202 2.683908 -0.632362 
0.689594 0.656771 0.865236 -93.871034 8.168387 92.087725 25.851567 8.835847 -42.193060 -11.321463 2.750881 52.135826 -5.496700 0.933818 -20.679391 0.000000 -0.000000 0.000000 -31.670708 -0.122119 10.868398 1.579572 29.927985 37.888154 24.549181 12.829527 1.053170 0.000000 -0.000000 0.000000 1.873597 8.378037 21.671451 7.669482 -8.934029 8.793190 2.063001 -0.514918 3.508010 -0.444003 12.246139 3.512943 3.410015 1.111527 4.971654 -15.026998 -3.746396 0.191406 -31.643303 -2.975104 -4.464810 -1.208921 -39.415948 2.710470 6.733707 -6.883027 -11.854445 24.096960 -2.185849 -1.358177 44.445407 -2.538349 6.474248 -25.273273 58.266838 -18.629076 1.144237 2.596139 -1.861679 
0.676905 0.637794 0.869836 -93.666655 9.571516 93.650140 25.606611 9.100852 -43.293375 -11.077117 3.169306 52.944787 -4.205614 0.787880 -22.000759 0.000000 -0.000000 0.000000 -31.815177 -2.785024 9.237032 1.035676 30.606281 35.794666 27.218367 12.655691 9.871451 0.000000 -0.000000 0.000000 1.104473 8.996822 22.732970 7.755041 -8.997131 8.369079 2.568908 -0.619446 3.195130 -0.521932 11.526754 3.378556 4.761292 1.000879 4.850245 -13.880600 -4.306007 0.070547 -32.296368 -4.365554 -4.004550 -1.456229 -41.263306 3.539512 6.296746 -7.298071 -13.210765 23.902541 -1.821640 -1.387101 46.216952 -2.280381 7.044708 -25.789280 57.812528 -18.746493 3.013789 1.920127 -1.707053 
0.663951 0.620196 0.877207 -93.285881 10.895566 95.083842 25.454140 8.580052 -43.744451 -10.755282 3.335675 52.752012 -2.898195 1.346950 -22.760079 0.000000 -0.000000 0.000000 -31.416356 -3.825995 8.235403 0.442892 29.374291 33.215773 29.124913 11.013869 18.407899 0.000000 -0.000000 0.000000 0.588133 9.481168 22.976239 7.916304 -8.937128 8.338510 2.945394 -0.631877 3.248064 -0.817659 10.546762 3.666741 5.635000 0.988694 4.633297 -13.878387 -5.165023 0.338966 -32.786515 -5.861125 -3.630389 -1.359220 -42.623565 3.755330 6.671200 -7.031018 -13.482828 23.942698 -1.428033 -0.939114 47.568378 -1.694772 7.230142 -27.135895 56.932156 -20.287410 3.343034 1.559644 -1.565486 
0.652402 0.602491 0.887110 -93.604662 12.006402 96.163384 25.019184 7.748574 -43.292527 -9.829509 3.482334 51.764737 -1.177813 2.177895 -23.360521 0.000000 -0.000000 0.000000 -30.730286 -4.275156 6.003218 0.391918 27.342547 32.699143 29.118920 7.982919 25.711794 0.000000 -0.000000 0.000000 0.351089 9.670234 23.305333 7.750470 -8.329955 8.218509 2.955823 -0.512932 3.370725 -1.084991 9.767513 3.693123 6.036991 1.235753 4.742270 -14.171227 -5.265125 0.624277 -33.985177 -7.698265 -3.392464 -0.874820 -43.344930 3.562573 6.461374 -6.619007 -13.737005 23.869046 -1.380705 -0.575947 48.924316 -1.010047 7.847707 -28.771647 55.952482 -21.873866 3.212029 1.349141 -1.591237 
0.640110 0.584661 0.898489 -93.414733 12.660172 97.086848 23.938487 6.588737 -42.318897 -9.133551 3.321138 49.912470 0.792805 3.435399 -23.506377 0.000000 -0.000000 0.000000 -29.573677 -5.052489 3.412757 -0.202944 23.702507 34.358649 26.486401 3.153159 30.312862 0.000000 -0.000000 0.000000 0.224465 9.222702 23.944468 7.488713 -7.503560 6.865022 3.114684 -0.766034 4.078304 -1.637056 7.923118 3.643653 6.735084 2.004877 4.745271 -14.945617 -5.070590 1.487045 -35.737521 -9.020756 -2.896252 -0.204397 -44.227043 3.299971 6.803368 -5.520656 -14.841370 23.684411 -1.509784 -0.317344 49.733875 -0.810782 8.418579 -29.602284 55.614996 -22.622712 2.960739 1.101784 -1.683766 
0.628584 0.567781 0.909931 -92.855627 12.459913 97.590910 22.158928 5.084677 -40.680243 -8.893324 2.951503 47.371918 2.097233 4.413721 -23.436288 0.000000 -0.000000 0.000000 -28.309892 -5.501817 0.582032 -1.792596 18.767424 38.717843 21.749503 -1.580245 29.057991 0.000000 -0.000000 0.000000 -0.326763 8.543828 24.424618 7.143279 -7.057721 5.926196 3.178633 -1.239422 4.880205 -1.417995 6.738857 3.694496 6.689203 2.631907 5.132111 -15.444708 -4.534647 2.878264 -37.737028 -10.313548 -2.770759 -0.097429 -45.027488 4.620552 6.985118 -5.338055 -15.344791 23.127413 -1.733902 0.050257 51.070385 -0.257653 8.817173 -29.927342 54.671320 -22.122795 3.043459 1.701537 -2.492089 
0.618125 0.552156 0.920618 -92.491712 11.979963 97.856331 20.243253 3.842139 -38.552421 -8.732705 2.470427 44.249612 3.235242 5.358652 -23.115527 0.000000 -0.000000 0.000000 -26.356937 -5.319536 -2.955087 -3.665497 14.389154 45.091005 15.360093 -6.018682 25.462037 0.000000 -0.000000 0.000000 -0.766046 7.626494 24.468441 6.666105 -6.612108 5.336990 2.893263 -1.530208 5.537505 -1.024913 5.914095 3.925562 6.720013 2.940273 5.605826 -15.792869 -4.298876 3.956085 -39.626885 -10.805488 -2.440340 -0.894278 -45.455605 7.102276 6.081087 -5.218029 -15.885900 22.206966 -1.981086 0.473421 53.037982 -0.252856 8.986248 -30.453646 54.052283 -21.347794 2.745063 1.632577 -3.297090 
0.607282 0.538323 0.931137 -91.713128 11.353136 97.812304 18.083435 3.042494 -35.877768 -8.740060 1.361088 40.679320 3.760817 5.748397 -22.422543 0.000000 -0.000000 0.000000 -23.029482 -5.108490 -6.345630 -5.357161 12.663698 52.533690 10.244094 -10.479747 20.957297 0.000000 -0.000000 0.000000 -1.023895 6.291805 24.650166 6.215020 -6.042379 5.133283 2.586125 -2.110917 6.050443 -0.135002 4.518465 3.337737 7.918200 3.123719 6.424506 -16.316063 -4.065281 3.585913 -41.263375 -10.404768 -0.790581 -1.342751 -45.482617 9.305159 5.013961 -4.610513 -16.066377 21.723799 -1.682250 -0.596008 54.288699 -1.540528 10.059983 -31.222006 52.889922 -21.876186 3.541073 1.409648 -3.555648 
0.597454 0.526887 0.941069 -90.848120 10.289877 97.253445 15.852391 2.070532 -32.971247 -9.062778 0.122467 37.457435 3.517517 6.416855 -21.675059 0.000000 -0.000000 0.000000 -19.649672 -3.183571 -9.195841 -5.574775 10.686150 59.465992 7.832327 -12.498524 15.489635 0.000000 -0.000000 0.000000 -1.582454 4.915839 24.765332 5.833031 -5.817320 5.505133 2.256841 -2.560074 5.952883 0.140592 3.917380 4.076687 8.078916 3.061216 6.375457 -17.491145 -4.200907 3.507503 -41.979674 -9.186867 0.673422 -1.309681 -45.491079 9.837201 4.022186 -4.518889 -14.485883 21.547380 -1.303660 -0.958555 54.723258 -2.677203 10.065499 -30.385890 51.739472 -21.596031 4.720795 1.457672 -3.589221 
0.588735 0.516838 0.950041 -90.282038 9.005485 96.672851 13.469208 0.960576 -29.855079 -8.964206 -1.074918 34.057093 3.369583 7.470852 -21.238208 0.000000 -0.000000 0.000000 -16.146424 -1.634315 -12.405662 -4.289627 9.620990 65.188768 7.867223 -11.576688 8.515999 0.000000 -0.000000 0.000000 -2.435552 3.856744 24.733556 5.542500 -5.810283 5.655233 1.975948 -2.767856 5.897279 0.997362 4.330075 4.987032 7.462092 2.573618 6.120923 -18.513895 -3.792768 3.364762 -42.932383 -8.607234 2.105117 -1.419471 -44.953881 10.265789 3.446261 -4.421204 -12.848096 21.660885 -1.888947 -1.333506 54.689522 -3.336300 10.032792 -28.446517 50.743460 -19.502385 4.453816 0.920145 -3.787585 
